G04 PROTEUS GERBER X2 FILE*
%TF.GenerationSoftware,Labcenter,Proteus,8.9-SP0-Build27865*%
%TF.CreationDate,2026-01-09T17:02:56+00:00*%
%TF.FileFunction,Copper,L2,Bot*%
%TF.FilePolarity,Positive*%
%TF.Part,Single*%
%TF.SameCoordinates,{d5e26176-f0e9-456a-af72-f71da18a6cc2}*%
%FSLAX45Y45*%
%MOMM*%
G01*
%TA.AperFunction,Conductor*%
%ADD10C,0.889000*%
%TA.AperFunction,ViaPad*%
%ADD11C,1.778000*%
%TA.AperFunction,Conductor*%
%ADD16C,0.254000*%
%TA.AperFunction,ComponentPad*%
%ADD12R,1.270000X1.270000*%
%ADD13C,1.778000*%
%TA.AperFunction,ComponentPad*%
%ADD14R,1.778000X1.778000*%
%TA.AperFunction,Profile*%
%ADD15C,0.203200*%
%TD.AperFunction*%
G36*
X-530810Y+6111619D02*
X-9919190Y+6111619D01*
X-9919190Y+10269190D01*
X-5227178Y+10269190D01*
X-5377270Y+10119098D01*
X-5467549Y+10119098D01*
X-5467549Y+10074648D01*
X-5554532Y+10074648D01*
X-5610163Y+10130279D01*
X-5783759Y+10130279D01*
X-5906510Y+10007528D01*
X-5906510Y+9833932D01*
X-5783759Y+9711181D01*
X-5610163Y+9711181D01*
X-5576894Y+9744450D01*
X-5467549Y+9744450D01*
X-5467549Y+9700000D01*
X-5169099Y+9700000D01*
X-5169099Y+9264386D01*
X-5188526Y+9244958D01*
X-5422370Y+9011115D01*
X-5422370Y+9319904D01*
X-5628030Y+9525564D01*
X-6792005Y+9525564D01*
X-7175848Y+9141720D01*
X-7465099Y+8852470D01*
X-7465099Y+8534149D01*
X-7484149Y+8534149D01*
X-7484149Y+8261099D01*
X-7588554Y+8261099D01*
X-7536451Y+8313202D01*
X-7536451Y+8486798D01*
X-7659202Y+8609549D01*
X-7832798Y+8609549D01*
X-7873000Y+8569347D01*
X-7913202Y+8609549D01*
X-7976065Y+8609549D01*
X-8031615Y+8665099D01*
X-8218752Y+8665099D01*
X-8263202Y+8709549D01*
X-8434901Y+8709549D01*
X-8434901Y+8931615D01*
X-8281615Y+9084901D01*
X-8163549Y+9084901D01*
X-8163549Y+9040451D01*
X-8115099Y+9040451D01*
X-8115099Y+9031248D01*
X-8159549Y+8986798D01*
X-8159549Y+8813202D01*
X-8036798Y+8690451D01*
X-7863202Y+8690451D01*
X-7740451Y+8813202D01*
X-7740451Y+8986798D01*
X-7784901Y+9031248D01*
X-7784901Y+9040451D01*
X-7490451Y+9040451D01*
X-7490451Y+9459549D01*
X-7802838Y+9459549D01*
X-7802838Y+9789482D01*
X-7758388Y+9833932D01*
X-7758388Y+10007528D01*
X-7881139Y+10130279D01*
X-8054735Y+10130279D01*
X-8177486Y+10007528D01*
X-8177486Y+9833932D01*
X-8133036Y+9789482D01*
X-8133036Y+9459549D01*
X-8163549Y+9459549D01*
X-8163549Y+9415099D01*
X-8418385Y+9415099D01*
X-8765099Y+9068385D01*
X-8765099Y+8165099D01*
X-8781615Y+8165099D01*
X-8815708Y+8199192D01*
X-8815708Y+8755336D01*
X-9039422Y+8979050D01*
X-9499740Y+8979050D01*
X-9910820Y+8567970D01*
X-9910820Y+7505694D01*
X-9490027Y+7084901D01*
X-9464583Y+7084901D01*
X-9489935Y+7059549D01*
X-9552798Y+7059549D01*
X-9675549Y+6936798D01*
X-9675549Y+6763202D01*
X-9552798Y+6640451D01*
X-9379202Y+6640451D01*
X-9256451Y+6763202D01*
X-9256451Y+6826065D01*
X-9096901Y+6985615D01*
X-9096901Y+7118752D01*
X-9052451Y+7163202D01*
X-9052451Y+7218967D01*
X-8659549Y+6826065D01*
X-8659549Y+6763202D01*
X-8536798Y+6640451D01*
X-8363202Y+6640451D01*
X-8318752Y+6684901D01*
X-8131615Y+6684901D01*
X-8026065Y+6790451D01*
X-7963202Y+6790451D01*
X-7840451Y+6913202D01*
X-7840451Y+7086798D01*
X-7963202Y+7209549D01*
X-8136798Y+7209549D01*
X-8259549Y+7086798D01*
X-8259549Y+7023935D01*
X-8268385Y+7015099D01*
X-8318752Y+7015099D01*
X-8363202Y+7059549D01*
X-8426065Y+7059549D01*
X-8432367Y+7065851D01*
X-8315851Y+7065851D01*
X-8315851Y+7284901D01*
X-8031615Y+7284901D01*
X-7932166Y+7384350D01*
X-7485082Y+6937266D01*
X-7509549Y+6912798D01*
X-7509549Y+6739202D01*
X-7386798Y+6616451D01*
X-7213202Y+6616451D01*
X-7180175Y+6649478D01*
X-7180175Y+6577115D01*
X-6821637Y+6218577D01*
X-6032828Y+6218577D01*
X-5525657Y+6725748D01*
X-5525657Y+6553781D01*
X-5402906Y+6431030D01*
X-5229310Y+6431030D01*
X-5106559Y+6553781D01*
X-5106559Y+6560696D01*
X-4988325Y+6245918D01*
X-4903618Y+6185403D01*
X-3684487Y+6173824D01*
X-3604562Y+6221830D01*
X-3325124Y+6737315D01*
X-3325124Y+6308144D01*
X-3169341Y+6152361D01*
X-2369678Y+6152361D01*
X-1650901Y+6871138D01*
X-1650901Y+7218752D01*
X-1606451Y+7263202D01*
X-1606451Y+7436798D01*
X-1729202Y+7559549D01*
X-1902798Y+7559549D01*
X-1950203Y+7512144D01*
X-1950203Y+7932313D01*
X-1742065Y+8140451D01*
X-1679202Y+8140451D01*
X-1556451Y+8263202D01*
X-1556451Y+8436798D01*
X-1679202Y+8559549D01*
X-1852798Y+8559549D01*
X-1975549Y+8436798D01*
X-1975549Y+8373935D01*
X-2280401Y+8069083D01*
X-2280401Y+7657985D01*
X-2288792Y+7666376D01*
X-2440451Y+7666376D01*
X-2440451Y+7798798D01*
X-2480653Y+7839000D01*
X-2440451Y+7879202D01*
X-2440451Y+8052798D01*
X-2480653Y+8093000D01*
X-2440451Y+8133202D01*
X-2440451Y+8306798D01*
X-2480653Y+8347000D01*
X-2440451Y+8387202D01*
X-2440451Y+8560798D01*
X-2480653Y+8601000D01*
X-2440451Y+8641202D01*
X-2440451Y+8814798D01*
X-2563202Y+8937549D01*
X-2736798Y+8937549D01*
X-2750423Y+8923924D01*
X-2750423Y+9030872D01*
X-2496394Y+9284901D01*
X-1931248Y+9284901D01*
X-1886798Y+9240451D01*
X-1713202Y+9240451D01*
X-1590451Y+9363202D01*
X-1590451Y+9536798D01*
X-1713202Y+9659549D01*
X-1886798Y+9659549D01*
X-1931248Y+9615099D01*
X-2633164Y+9615099D01*
X-3080621Y+9167642D01*
X-3080621Y+9006116D01*
X-3497153Y+9341672D01*
X-4838901Y+9341672D01*
X-4838901Y+9700000D01*
X-4540451Y+9700000D01*
X-4540451Y+9954480D01*
X-4409549Y+9954480D01*
X-4409549Y+9700000D01*
X-4155059Y+9700000D01*
X-4155059Y+9581659D01*
X-4032308Y+9458908D01*
X-3858712Y+9458908D01*
X-3735961Y+9581659D01*
X-3735961Y+9700000D01*
X-3482451Y+9700000D01*
X-3482451Y+10119098D01*
X-4058049Y+10119098D01*
X-4208141Y+10269190D01*
X-530810Y+10269190D01*
X-530810Y+6111619D01*
G37*
%LPC*%
G36*
X-574451Y+9536798D02*
X-574451Y+9363202D01*
X-618901Y+9318752D01*
X-618902Y+9047614D01*
X-740451Y+8926065D01*
X-740451Y+8740451D01*
X-1413549Y+8740451D01*
X-1413549Y+9159549D01*
X-973935Y+9159549D01*
X-949098Y+9184386D01*
X-949099Y+9318752D01*
X-993549Y+9363202D01*
X-993549Y+9536798D01*
X-870798Y+9659549D01*
X-697202Y+9659549D01*
X-574451Y+9536798D01*
G37*
G36*
X-540451Y+8436798D02*
X-540451Y+8263202D01*
X-584901Y+8218752D01*
X-584901Y+8081615D01*
X-790451Y+7876065D01*
X-790451Y+7690451D01*
X-1463549Y+7690451D01*
X-1463549Y+8109549D01*
X-1023935Y+8109549D01*
X-915099Y+8218385D01*
X-915099Y+8218752D01*
X-959549Y+8263202D01*
X-959549Y+8436798D01*
X-836798Y+8559549D01*
X-663202Y+8559549D01*
X-540451Y+8436798D01*
G37*
G36*
X-590451Y+7436798D02*
X-590451Y+7263202D01*
X-634901Y+7218752D01*
X-634901Y+6781615D01*
X-790451Y+6626065D01*
X-790451Y+6440451D01*
X-1463549Y+6440451D01*
X-1463549Y+6859549D01*
X-1023935Y+6859549D01*
X-965099Y+6918385D01*
X-965099Y+7218752D01*
X-1009549Y+7263202D01*
X-1009549Y+7436798D01*
X-886798Y+7559549D01*
X-713202Y+7559549D01*
X-590451Y+7436798D01*
G37*
G36*
X-2646954Y+9027528D02*
X-2646954Y+9080134D01*
X-2609757Y+9117331D01*
X-2557151Y+9117331D01*
X-2519954Y+9080134D01*
X-2519954Y+9027528D01*
X-2557151Y+8990331D01*
X-2609757Y+8990331D01*
X-2646954Y+9027528D01*
G37*
%LPD*%
G36*
X-3682074Y+8764590D02*
X-3759499Y+8687166D01*
X-3773031Y+8687166D01*
X-3736500Y+8723697D01*
X-3736500Y+8776303D01*
X-3773697Y+8813500D01*
X-3826303Y+8813500D01*
X-3863500Y+8776303D01*
X-3863500Y+8723697D01*
X-3826303Y+8686500D01*
X-3823028Y+8686500D01*
X-3945113Y+8564415D01*
X-3945113Y+8390819D01*
X-3822362Y+8268068D01*
X-3648766Y+8268068D01*
X-3621549Y+8295285D01*
X-3621549Y+8133202D01*
X-3581347Y+8093000D01*
X-3621549Y+8052798D01*
X-3621549Y+7879202D01*
X-3581347Y+7839000D01*
X-3621549Y+7798798D01*
X-3621549Y+7778165D01*
X-3718310Y+7681404D01*
X-3830029Y+7793122D01*
X-4003625Y+7793122D01*
X-4090451Y+7706296D01*
X-4090451Y+7798798D01*
X-4130653Y+7839000D01*
X-4090451Y+7879202D01*
X-4090451Y+8052798D01*
X-4130653Y+8093000D01*
X-4090451Y+8133202D01*
X-4090451Y+8306798D01*
X-4130653Y+8347000D01*
X-4090451Y+8387202D01*
X-4090451Y+8560798D01*
X-4130653Y+8601000D01*
X-4090451Y+8641202D01*
X-4090451Y+8814798D01*
X-4122062Y+8846409D01*
X-3763893Y+8846409D01*
X-3682074Y+8764590D01*
G37*
G36*
X-4509549Y+8814798D02*
X-4509549Y+8641202D01*
X-4469347Y+8601000D01*
X-4509549Y+8560798D01*
X-4509549Y+8387202D01*
X-4469347Y+8347000D01*
X-4509549Y+8306798D01*
X-4509549Y+8133202D01*
X-4469347Y+8093000D01*
X-4509549Y+8052798D01*
X-4509549Y+7879202D01*
X-4469347Y+7839000D01*
X-4509549Y+7798798D01*
X-4509549Y+7625202D01*
X-4469347Y+7585000D01*
X-4509549Y+7544798D01*
X-4509549Y+7371202D01*
X-4469347Y+7331000D01*
X-4509549Y+7290798D01*
X-4509549Y+7117202D01*
X-4484149Y+7091802D01*
X-4484149Y+6958817D01*
X-4641777Y+7116445D01*
X-4641777Y+7568210D01*
X-4852451Y+7778884D01*
X-4852451Y+7798798D01*
X-4892653Y+7839000D01*
X-4852451Y+7879202D01*
X-4852451Y+8052798D01*
X-4892653Y+8093000D01*
X-4852451Y+8133202D01*
X-4852451Y+8306798D01*
X-4892653Y+8347000D01*
X-4852451Y+8387202D01*
X-4852451Y+8560798D01*
X-4892653Y+8601000D01*
X-4852451Y+8641202D01*
X-4852451Y+8719090D01*
X-4725132Y+8846409D01*
X-4477938Y+8846409D01*
X-4509549Y+8814798D01*
G37*
D10*
X-8500000Y+7504000D02*
X-8654000Y+7504000D01*
X-8900000Y+7750000D01*
X-9254000Y+7750000D01*
X-9262000Y+7758000D01*
X-9262000Y+7504000D02*
X-9427325Y+7504000D01*
X-9580659Y+7657334D01*
X-9580659Y+8285341D01*
X-9366000Y+8500000D01*
X-9466000Y+6850000D02*
X-9262000Y+7054000D01*
X-9262000Y+7250000D01*
X-8450000Y+6850000D02*
X-9104000Y+7504000D01*
X-9262000Y+7504000D01*
X-8000000Y+8400000D02*
X-8100000Y+8500000D01*
X-8350000Y+8500000D01*
X-8500000Y+8012000D02*
X-8512000Y+8000000D01*
X-8500000Y+8012000D01*
X-9262000Y+7250000D02*
X-9421642Y+7250000D01*
X-9745721Y+7574079D01*
X-9745721Y+8499585D01*
X-9431355Y+8813951D01*
X-9107807Y+8813951D01*
X-8980807Y+8686951D01*
X-8980807Y+8130807D01*
X-8850000Y+8000000D01*
X-8512000Y+8000000D01*
X-8450000Y+6850000D02*
X-8200000Y+6850000D01*
X-8050000Y+7000000D01*
X-8050000Y+8016000D02*
X-8050000Y+8350000D01*
X-8000000Y+8400000D01*
X-7300000Y+8096000D02*
X-7627896Y+8096000D01*
X-7843244Y+7880652D01*
X-7843244Y+7528912D01*
X-7394332Y+7080000D01*
X-7300000Y+7080000D01*
X-7300000Y+7334000D02*
X-7192835Y+7334000D01*
X-6933992Y+7592843D01*
X-6542843Y+7592843D01*
X-6538000Y+7588000D01*
X-6449100Y+8100000D02*
X-6542008Y+8100000D01*
X-6560464Y+8081544D01*
X-6538000Y+8096000D01*
X-5988505Y+8411495D02*
X-6300000Y+8100000D01*
X-6302286Y+8097714D01*
X-6449100Y+8097714D01*
X-6538000Y+8096000D01*
X-7300000Y+8784084D02*
X-7300000Y+8413500D01*
X-7300000Y+8350000D01*
X-7300000Y+8784084D02*
X-7300000Y+8784085D01*
X-7067042Y+9017042D01*
X-6723620Y+9360465D01*
X-5696415Y+9360465D01*
X-5587469Y+9251519D01*
X-5587469Y+9018063D01*
X-5988505Y+8617027D01*
X-5988505Y+8411495D01*
X-6538000Y+7334000D02*
X-6699398Y+7334000D01*
X-7015076Y+7018322D01*
X-7015076Y+6645500D01*
X-6753252Y+6383676D01*
X-6101213Y+6383676D01*
X-5623326Y+6861563D01*
X-5623326Y+7463798D01*
X-6259528Y+8100000D01*
X-6300000Y+8100000D01*
X-6333805Y+8100000D01*
X-6449100Y+8100000D01*
X-6538000Y+8096000D01*
X-8500000Y+8012000D02*
X-8600000Y+8112000D01*
X-8600000Y+9000000D01*
X-8350000Y+9250000D01*
X-7954000Y+9250000D01*
X-3412000Y+8728000D02*
X-3695508Y+9011508D01*
X-4793517Y+9011508D01*
X-5062000Y+8743025D01*
X-5062000Y+8728000D01*
X-3412000Y+6950000D02*
X-3729534Y+6339358D01*
X-4850000Y+6350000D01*
X-5062000Y+6950000D01*
X-3412000Y+7712000D02*
X-3459896Y+7664104D01*
X-3502126Y+7664104D01*
X-4013917Y+7152313D01*
X-4013917Y+6716343D01*
X-4149762Y+6580498D01*
X-4339314Y+6580498D01*
X-4806876Y+7048060D01*
X-4806876Y+7070174D01*
X-4806876Y+7499825D01*
X-5019051Y+7712000D01*
X-5062000Y+7712000D01*
X-1000000Y+6650000D02*
X-800000Y+6850000D01*
X-800000Y+7350000D01*
X-1000000Y+7900000D02*
X-750000Y+8150000D01*
X-750000Y+8350000D01*
X-950000Y+8950000D02*
X-784000Y+9116000D01*
X-784000Y+9450000D01*
X-1800000Y+9450000D02*
X-2564779Y+9450000D01*
X-2915522Y+9099257D01*
X-2915522Y+8212532D01*
X-3155880Y+7972174D01*
X-3405826Y+7972174D01*
X-3412000Y+7966000D01*
X-1816000Y+7350000D02*
X-1816000Y+6939523D01*
X-2438063Y+6317460D01*
X-3100956Y+6317460D01*
X-3160025Y+6376529D01*
X-3160025Y+7056925D01*
X-3307100Y+7204000D01*
X-3412000Y+7204000D01*
X-1766000Y+8350000D02*
X-2115302Y+8000698D01*
X-2115302Y+7056529D01*
X-2595665Y+6576166D01*
X-2842426Y+6576166D01*
X-2994984Y+6728724D01*
X-2994984Y+7126832D01*
X-3326152Y+7458000D01*
X-3412000Y+7458000D01*
X-6538000Y+6826000D02*
X-6371696Y+6826000D01*
X-6000000Y+7197696D01*
X-6000000Y+7602012D01*
X-6239851Y+7841863D01*
X-6507548Y+7841863D01*
X-6541788Y+7876103D01*
X-6538000Y+7842000D01*
X-6538000Y+7588000D02*
X-6285870Y+7588000D01*
X-6209502Y+7511632D01*
X-5423660Y+7527283D02*
X-5177283Y+7527283D01*
X-5108000Y+7458000D01*
X-5062000Y+7458000D01*
X-7300000Y+7842000D02*
X-7252930Y+7842000D01*
X-7024651Y+8070279D01*
X-7024651Y+8663453D01*
X-5716627Y+8511357D02*
X-5716627Y+8197026D01*
X-5488484Y+7968883D01*
X-5064883Y+7968883D01*
X-5062000Y+7966000D01*
X-6538000Y+8350000D02*
X-6294591Y+8593409D01*
X-6294591Y+9018343D01*
X-5316108Y+6640579D02*
X-5316108Y+6858584D01*
X-5229921Y+6944771D01*
X-5067229Y+6944771D01*
X-5062000Y+6950000D01*
X-7300000Y+7588000D02*
X-7254049Y+7633951D01*
X-7144958Y+7633951D01*
X-6800000Y+7978909D01*
X-6800000Y+8900000D01*
X-8500000Y+7504000D02*
X-8446000Y+7450000D01*
X-8100000Y+7450000D01*
X-8050000Y+7500000D01*
X-8050000Y+8016000D01*
X-7300000Y+7842000D02*
X-7508000Y+7842000D01*
X-7600000Y+7750000D01*
X-8259470Y+7750000D02*
X-8492000Y+7750000D01*
X-8500000Y+7758000D01*
X-2650000Y+7458000D02*
X-2376763Y+7458000D01*
X-2375590Y+7456827D01*
X-3916827Y+7583573D02*
X-4042400Y+7458000D01*
X-4300000Y+7458000D01*
X-5023427Y+9176573D02*
X-5350000Y+8850000D01*
X-5350000Y+8550000D01*
X-5274000Y+8474000D01*
X-5062000Y+8474000D01*
X-4923427Y+9176573D02*
X-3555380Y+9176573D01*
X-3150000Y+8850000D01*
X-3150000Y+8550000D01*
X-3366741Y+8474000D01*
X-3412000Y+8474000D01*
X-5023427Y+9176573D02*
X-4923427Y+9176573D01*
X-2650000Y+8728000D02*
X-2583454Y+8794546D01*
X-2583454Y+9053831D01*
X-3800000Y+8750000D02*
X-4293570Y+8734430D01*
X-4300000Y+8728000D01*
X-5258000Y+9909549D02*
X-5258000Y+10004884D01*
X-5143305Y+10119579D01*
X-4292014Y+10119579D01*
X-4285167Y+10112732D01*
X-4200000Y+10027565D01*
X-4200000Y+9909549D01*
X-5004000Y+9909549D02*
X-5004000Y+9196000D01*
X-5023427Y+9176573D01*
X-3946000Y+9909549D02*
X-3946000Y+9668947D01*
X-3945510Y+9668457D01*
X-3735564Y+8477617D02*
X-3485181Y+8728000D01*
X-3412000Y+8728000D01*
X-7950000Y+9246000D02*
X-7954000Y+9250000D01*
X-7950000Y+8900000D02*
X-7950000Y+9246000D01*
X-6538000Y+7080000D02*
X-6432299Y+7080000D01*
X-6250000Y+7250000D01*
X-5413863Y+7187491D02*
X-5078509Y+7187491D01*
X-5062000Y+7204000D01*
X-5258000Y+9909549D02*
X-5685780Y+9909549D01*
X-5696961Y+9920730D01*
X-7967937Y+9920730D02*
X-7967937Y+9263937D01*
X-7954000Y+9250000D01*
D11*
X-6209502Y+7511632D03*
X-5423660Y+7527283D03*
X-7024651Y+8663453D03*
X-5716627Y+8511357D03*
X-6294591Y+9018343D03*
X-5316108Y+6640579D03*
X-6800000Y+8900000D03*
X-7950000Y+8900000D03*
X-7600000Y+7750000D03*
X-8259470Y+7750000D03*
X-2375590Y+7456827D03*
X-3916827Y+7583573D03*
X-2583454Y+9053831D03*
X-3800000Y+8750000D03*
X-3945510Y+9668457D03*
X-3735564Y+8477617D03*
X-6250000Y+7250000D03*
X-5413863Y+7187491D03*
X-5696961Y+9920730D03*
X-7967937Y+9920730D03*
D10*
X-530810Y+6111619D02*
X-9919190Y+6111619D01*
X-9919190Y+10269190D01*
X-5227178Y+10269190D01*
X-5377270Y+10119098D01*
X-5467549Y+10119098D01*
X-5467549Y+10074648D01*
X-5554532Y+10074648D01*
X-5610163Y+10130279D01*
X-5783759Y+10130279D01*
X-5906510Y+10007528D01*
X-5906510Y+9833932D01*
X-5783759Y+9711181D01*
X-5610163Y+9711181D01*
X-5576894Y+9744450D01*
X-5467549Y+9744450D01*
X-5467549Y+9700000D01*
X-5169099Y+9700000D01*
X-5169099Y+9264386D01*
X-5188526Y+9244958D01*
X-5422370Y+9011115D01*
X-5422370Y+9319904D01*
X-5628030Y+9525564D01*
X-6792005Y+9525564D01*
X-7175848Y+9141720D01*
X-7465099Y+8852470D01*
X-7465099Y+8534149D01*
X-7484149Y+8534149D01*
X-7484149Y+8261099D01*
X-7588554Y+8261099D01*
X-7536451Y+8313202D01*
X-7536451Y+8486798D01*
X-7659202Y+8609549D01*
X-7832798Y+8609549D01*
X-7873000Y+8569347D01*
X-7913202Y+8609549D01*
X-7976065Y+8609549D01*
X-8031615Y+8665099D01*
X-8218752Y+8665099D01*
X-8263202Y+8709549D01*
X-8434901Y+8709549D01*
X-8434901Y+8931615D01*
X-8281615Y+9084901D01*
X-8163549Y+9084901D01*
X-8163549Y+9040451D01*
X-8115099Y+9040451D01*
X-8115099Y+9031248D01*
X-8159549Y+8986798D01*
X-8159549Y+8813202D01*
X-8036798Y+8690451D01*
X-7863202Y+8690451D01*
X-7740451Y+8813202D01*
X-7740451Y+8986798D01*
X-7784901Y+9031248D01*
X-7784901Y+9040451D01*
X-7490451Y+9040451D01*
X-7490451Y+9459549D01*
X-7802838Y+9459549D01*
X-7802838Y+9789482D01*
X-7758388Y+9833932D01*
X-7758388Y+10007528D01*
X-7881139Y+10130279D01*
X-8054735Y+10130279D01*
X-8177486Y+10007528D01*
X-8177486Y+9833932D01*
X-8133036Y+9789482D01*
X-8133036Y+9459549D01*
X-8163549Y+9459549D01*
X-8163549Y+9415099D01*
X-8418385Y+9415099D01*
X-8765099Y+9068385D01*
X-8765099Y+8165099D01*
X-8781615Y+8165099D01*
X-8815708Y+8199192D01*
X-8815708Y+8755336D01*
X-9039422Y+8979050D01*
X-9499740Y+8979050D01*
X-9910820Y+8567970D01*
X-9910820Y+7505694D01*
X-9490027Y+7084901D01*
X-9464583Y+7084901D01*
X-9489935Y+7059549D01*
X-9552798Y+7059549D01*
X-9675549Y+6936798D01*
X-9675549Y+6763202D01*
X-9552798Y+6640451D01*
X-9379202Y+6640451D01*
X-9256451Y+6763202D01*
X-9256451Y+6826065D01*
X-9096901Y+6985615D01*
X-9096901Y+7118752D01*
X-9052451Y+7163202D01*
X-9052451Y+7218967D01*
X-8659549Y+6826065D01*
X-8659549Y+6763202D01*
X-8536798Y+6640451D01*
X-8363202Y+6640451D01*
X-8318752Y+6684901D01*
X-8131615Y+6684901D01*
X-8026065Y+6790451D01*
X-7963202Y+6790451D01*
X-7840451Y+6913202D01*
X-7840451Y+7086798D01*
X-7963202Y+7209549D01*
X-8136798Y+7209549D01*
X-8259549Y+7086798D01*
X-8259549Y+7023935D01*
X-8268385Y+7015099D01*
X-8318752Y+7015099D01*
X-8363202Y+7059549D01*
X-8426065Y+7059549D01*
X-8432367Y+7065851D01*
X-8315851Y+7065851D01*
X-8315851Y+7284901D01*
X-8031615Y+7284901D01*
X-7932166Y+7384350D01*
X-7485082Y+6937266D01*
X-7509549Y+6912798D01*
X-7509549Y+6739202D01*
X-7386798Y+6616451D01*
X-7213202Y+6616451D01*
X-7180175Y+6649478D01*
X-7180175Y+6577115D01*
X-6821637Y+6218577D01*
X-6032828Y+6218577D01*
X-5525657Y+6725748D01*
X-5525657Y+6553781D01*
X-5402906Y+6431030D01*
X-5229310Y+6431030D01*
X-5106559Y+6553781D01*
X-5106559Y+6560696D01*
X-4988325Y+6245918D01*
X-4903618Y+6185403D01*
X-3684487Y+6173824D01*
X-3604562Y+6221830D01*
X-3325124Y+6737315D01*
X-3325124Y+6308144D01*
X-3169341Y+6152361D01*
X-2369678Y+6152361D01*
X-1650901Y+6871138D01*
X-1650901Y+7218752D01*
X-1606451Y+7263202D01*
X-1606451Y+7436798D01*
X-1729202Y+7559549D01*
X-1902798Y+7559549D01*
X-1950203Y+7512144D01*
X-1950203Y+7932313D01*
X-1742065Y+8140451D01*
X-1679202Y+8140451D01*
X-1556451Y+8263202D01*
X-1556451Y+8436798D01*
X-1679202Y+8559549D01*
X-1852798Y+8559549D01*
X-1975549Y+8436798D01*
X-1975549Y+8373935D01*
X-2280401Y+8069083D01*
X-2280401Y+7657985D01*
X-2288792Y+7666376D01*
X-2440451Y+7666376D01*
X-2440451Y+7798798D01*
X-2480653Y+7839000D01*
X-2440451Y+7879202D01*
X-2440451Y+8052798D01*
X-2480653Y+8093000D01*
X-2440451Y+8133202D01*
X-2440451Y+8306798D01*
X-2480653Y+8347000D01*
X-2440451Y+8387202D01*
X-2440451Y+8560798D01*
X-2480653Y+8601000D01*
X-2440451Y+8641202D01*
X-2440451Y+8814798D01*
X-2563202Y+8937549D01*
X-2736798Y+8937549D01*
X-2750423Y+8923924D01*
X-2750423Y+9030872D01*
X-2496394Y+9284901D01*
X-1931248Y+9284901D01*
X-1886798Y+9240451D01*
X-1713202Y+9240451D01*
X-1590451Y+9363202D01*
X-1590451Y+9536798D01*
X-1713202Y+9659549D01*
X-1886798Y+9659549D01*
X-1931248Y+9615099D01*
X-2633164Y+9615099D01*
X-3080621Y+9167642D01*
X-3080621Y+9006116D01*
X-3497153Y+9341672D01*
X-4838901Y+9341672D01*
X-4838901Y+9700000D01*
X-4540451Y+9700000D01*
X-4540451Y+9954480D01*
X-4409549Y+9954480D01*
X-4409549Y+9700000D01*
X-4155059Y+9700000D01*
X-4155059Y+9581659D01*
X-4032308Y+9458908D01*
X-3858712Y+9458908D01*
X-3735961Y+9581659D01*
X-3735961Y+9700000D01*
X-3482451Y+9700000D01*
X-3482451Y+10119098D01*
X-4058049Y+10119098D01*
X-4208141Y+10269190D01*
X-530810Y+10269190D01*
X-530810Y+6111619D01*
X-574451Y+9536798D02*
X-574451Y+9363202D01*
X-618901Y+9318752D01*
X-618902Y+9047614D01*
X-740451Y+8926065D01*
X-740451Y+8740451D01*
X-1413549Y+8740451D01*
X-1413549Y+9159549D01*
X-973935Y+9159549D01*
X-949098Y+9184386D01*
X-949099Y+9318752D01*
X-993549Y+9363202D01*
X-993549Y+9536798D01*
X-870798Y+9659549D01*
X-697202Y+9659549D01*
X-574451Y+9536798D01*
X-540451Y+8436798D02*
X-540451Y+8263202D01*
X-584901Y+8218752D01*
X-584901Y+8081615D01*
X-790451Y+7876065D01*
X-790451Y+7690451D01*
X-1463549Y+7690451D01*
X-1463549Y+8109549D01*
X-1023935Y+8109549D01*
X-915099Y+8218385D01*
X-915099Y+8218752D01*
X-959549Y+8263202D01*
X-959549Y+8436798D01*
X-836798Y+8559549D01*
X-663202Y+8559549D01*
X-540451Y+8436798D01*
X-590451Y+7436798D02*
X-590451Y+7263202D01*
X-634901Y+7218752D01*
X-634901Y+6781615D01*
X-790451Y+6626065D01*
X-790451Y+6440451D01*
X-1463549Y+6440451D01*
X-1463549Y+6859549D01*
X-1023935Y+6859549D01*
X-965099Y+6918385D01*
X-965099Y+7218752D01*
X-1009549Y+7263202D01*
X-1009549Y+7436798D01*
X-886798Y+7559549D01*
X-713202Y+7559549D01*
X-590451Y+7436798D01*
X-2646954Y+9027528D02*
X-2646954Y+9080134D01*
X-2609757Y+9117331D01*
X-2557151Y+9117331D01*
X-2519954Y+9080134D01*
X-2519954Y+9027528D01*
X-2557151Y+8990331D01*
X-2609757Y+8990331D01*
X-2646954Y+9027528D01*
X-3682074Y+8764590D02*
X-3759499Y+8687166D01*
X-3773031Y+8687166D01*
X-3736500Y+8723697D01*
X-3736500Y+8776303D01*
X-3773697Y+8813500D01*
X-3826303Y+8813500D01*
X-3863500Y+8776303D01*
X-3863500Y+8723697D01*
X-3826303Y+8686500D01*
X-3823028Y+8686500D01*
X-3945113Y+8564415D01*
X-3945113Y+8390819D01*
X-3822362Y+8268068D01*
X-3648766Y+8268068D01*
X-3621549Y+8295285D01*
X-3621549Y+8133202D01*
X-3581347Y+8093000D01*
X-3621549Y+8052798D01*
X-3621549Y+7879202D01*
X-3581347Y+7839000D01*
X-3621549Y+7798798D01*
X-3621549Y+7778165D01*
X-3718310Y+7681404D01*
X-3830029Y+7793122D01*
X-4003625Y+7793122D01*
X-4090451Y+7706296D01*
X-4090451Y+7798798D01*
X-4130653Y+7839000D01*
X-4090451Y+7879202D01*
X-4090451Y+8052798D01*
X-4130653Y+8093000D01*
X-4090451Y+8133202D01*
X-4090451Y+8306798D01*
X-4130653Y+8347000D01*
X-4090451Y+8387202D01*
X-4090451Y+8560798D01*
X-4130653Y+8601000D01*
X-4090451Y+8641202D01*
X-4090451Y+8814798D01*
X-4122062Y+8846409D01*
X-3763893Y+8846409D01*
X-3682074Y+8764590D01*
X-4509549Y+8814798D02*
X-4509549Y+8641202D01*
X-4469347Y+8601000D01*
X-4509549Y+8560798D01*
X-4509549Y+8387202D01*
X-4469347Y+8347000D01*
X-4509549Y+8306798D01*
X-4509549Y+8133202D01*
X-4469347Y+8093000D01*
X-4509549Y+8052798D01*
X-4509549Y+7879202D01*
X-4469347Y+7839000D01*
X-4509549Y+7798798D01*
X-4509549Y+7625202D01*
X-4469347Y+7585000D01*
X-4509549Y+7544798D01*
X-4509549Y+7371202D01*
X-4469347Y+7331000D01*
X-4509549Y+7290798D01*
X-4509549Y+7117202D01*
X-4484149Y+7091802D01*
X-4484149Y+6958817D01*
X-4641777Y+7116445D01*
X-4641777Y+7568210D01*
X-4852451Y+7778884D01*
X-4852451Y+7798798D01*
X-4892653Y+7839000D01*
X-4852451Y+7879202D01*
X-4852451Y+8052798D01*
X-4892653Y+8093000D01*
X-4852451Y+8133202D01*
X-4852451Y+8306798D01*
X-4892653Y+8347000D01*
X-4852451Y+8387202D01*
X-4852451Y+8560798D01*
X-4892653Y+8601000D01*
X-4852451Y+8641202D01*
X-4852451Y+8719090D01*
X-4725132Y+8846409D01*
X-4477938Y+8846409D01*
X-4509549Y+8814798D01*
D16*
X-8315851Y+7250000D02*
X-8500000Y+7250000D01*
X-7490451Y+9250000D02*
X-7700000Y+9250000D01*
X-7700000Y+9040451D02*
X-7700000Y+9250000D01*
X-7700000Y+9459549D02*
X-7700000Y+9250000D01*
X-7536451Y+8400000D02*
X-7746000Y+8400000D01*
X-7746000Y+8609549D02*
X-7746000Y+8400000D01*
X-7300000Y+6616451D02*
X-7300000Y+6826000D01*
X-7509549Y+6826000D02*
X-7300000Y+6826000D01*
X-4090451Y+8220000D02*
X-4300000Y+8220000D01*
X-4509549Y+8220000D02*
X-4300000Y+8220000D01*
X-4090451Y+8474000D02*
X-4300000Y+8474000D01*
X-4509549Y+8474000D02*
X-4300000Y+8474000D01*
X-4090451Y+8728000D02*
X-4300000Y+8728000D01*
X-4509549Y+8728000D02*
X-4300000Y+8728000D01*
X-2440451Y+8220000D02*
X-2650000Y+8220000D01*
X-2650000Y+8937549D02*
X-2650000Y+8728000D01*
X-2440451Y+8728000D02*
X-2650000Y+8728000D01*
X-1413549Y+8950000D02*
X-1204000Y+8950000D01*
X-1204000Y+9159549D02*
X-1204000Y+8950000D01*
X-1204000Y+8740451D02*
X-1204000Y+8950000D01*
X-1463549Y+7900000D02*
X-1254000Y+7900000D01*
X-1254000Y+8109549D02*
X-1254000Y+7900000D01*
X-1254000Y+7690451D02*
X-1254000Y+7900000D01*
X-1463549Y+6650000D02*
X-1254000Y+6650000D01*
X-1254000Y+6859549D02*
X-1254000Y+6650000D01*
X-1254000Y+6440451D02*
X-1254000Y+6650000D01*
X-3482451Y+9909549D02*
X-3692000Y+9909549D01*
X-3692000Y+10119098D02*
X-3692000Y+9909549D01*
X-3692000Y+9700000D02*
X-3692000Y+9909549D01*
X-4540451Y+9909549D02*
X-4750000Y+9909549D01*
X-4750000Y+9700000D02*
X-4750000Y+9909549D01*
D12*
X-8500000Y+7250000D03*
D13*
X-8500000Y+7504000D03*
X-8500000Y+7758000D03*
X-8500000Y+8012000D03*
X-9262000Y+8012000D03*
X-9262000Y+7758000D03*
X-9262000Y+7504000D03*
X-9262000Y+7250000D03*
D14*
X-7954000Y+9250000D03*
X-7700000Y+9250000D03*
D13*
X-8050000Y+7000000D03*
X-8050000Y+8016000D03*
X-8350000Y+8500000D03*
X-9366000Y+8500000D03*
X-8450000Y+6850000D03*
X-9466000Y+6850000D03*
X-8000000Y+8400000D03*
X-7746000Y+8400000D03*
D12*
X-7300000Y+8350000D03*
D13*
X-7300000Y+8096000D03*
X-7300000Y+7842000D03*
X-7300000Y+7588000D03*
X-7300000Y+7334000D03*
X-7300000Y+7080000D03*
X-7300000Y+6826000D03*
X-6538000Y+6826000D03*
X-6538000Y+7080000D03*
X-6538000Y+7334000D03*
X-6538000Y+7588000D03*
X-6538000Y+7842000D03*
X-6538000Y+8096000D03*
X-6538000Y+8350000D03*
D12*
X-4300000Y+6950000D03*
D13*
X-4300000Y+7204000D03*
X-4300000Y+7458000D03*
X-4300000Y+7712000D03*
X-4300000Y+7966000D03*
X-4300000Y+8220000D03*
X-4300000Y+8474000D03*
X-4300000Y+8728000D03*
X-5062000Y+8728000D03*
X-5062000Y+8474000D03*
X-5062000Y+8220000D03*
X-5062000Y+7966000D03*
X-5062000Y+7712000D03*
X-5062000Y+7458000D03*
X-5062000Y+7204000D03*
X-5062000Y+6950000D03*
D12*
X-2650000Y+6950000D03*
D13*
X-2650000Y+7204000D03*
X-2650000Y+7458000D03*
X-2650000Y+7712000D03*
X-2650000Y+7966000D03*
X-2650000Y+8220000D03*
X-2650000Y+8474000D03*
X-2650000Y+8728000D03*
X-3412000Y+8728000D03*
X-3412000Y+8474000D03*
X-3412000Y+8220000D03*
X-3412000Y+7966000D03*
X-3412000Y+7712000D03*
X-3412000Y+7458000D03*
X-3412000Y+7204000D03*
X-3412000Y+6950000D03*
D14*
X-950000Y+8950000D03*
X-1204000Y+8950000D03*
X-1000000Y+7900000D03*
X-1254000Y+7900000D03*
X-1000000Y+6650000D03*
X-1254000Y+6650000D03*
D13*
X-784000Y+9450000D03*
X-1800000Y+9450000D03*
X-750000Y+8350000D03*
X-1766000Y+8350000D03*
X-800000Y+7350000D03*
X-1816000Y+7350000D03*
D14*
X-3692000Y+9909549D03*
X-3946000Y+9909549D03*
X-4200000Y+9909549D03*
X-4750000Y+9909549D03*
X-5004000Y+9909549D03*
X-5258000Y+9909549D03*
D15*
X-10050000Y+5980809D02*
X-400000Y+5980809D01*
X-400000Y+10400000D01*
X-10050000Y+10400000D01*
X-10050000Y+5980809D01*
M02*
