G04 PROTEUS GERBER X2 FILE*
%TF.GenerationSoftware,Labcenter,Proteus,8.9-SP0-Build27865*%
%TF.CreationDate,2026-01-09T17:02:56+00:00*%
%TF.FileFunction,Soldermask,Top*%
%TF.FilePolarity,Negative*%
%TF.Part,Single*%
%TF.SameCoordinates,{d5e26176-f0e9-456a-af72-f71da18a6cc2}*%
%FSLAX45Y45*%
%MOMM*%
G01*
%TA.AperFunction,Material*%
%ADD18C,2.032000*%
%AMPPAD009*
4,1,36,
-0.762000,-0.635000,
-0.762000,0.635000,
-0.759470,0.660970,
-0.752200,0.684980,
-0.740650,0.706580,
-0.725290,0.725290,
-0.706570,0.740650,
-0.684980,0.752200,
-0.660970,0.759470,
-0.635000,0.762000,
0.635000,0.762000,
0.660970,0.759470,
0.684980,0.752200,
0.706570,0.740650,
0.725290,0.725290,
0.740650,0.706580,
0.752200,0.684980,
0.759470,0.660970,
0.762000,0.635000,
0.762000,-0.635000,
0.759470,-0.660970,
0.752200,-0.684980,
0.740650,-0.706580,
0.725290,-0.725290,
0.706570,-0.740650,
0.684980,-0.752200,
0.660970,-0.759470,
0.635000,-0.762000,
-0.635000,-0.762000,
-0.660970,-0.759470,
-0.684980,-0.752200,
-0.706570,-0.740650,
-0.725290,-0.725290,
-0.740650,-0.706580,
-0.752200,-0.684980,
-0.759470,-0.660970,
-0.762000,-0.635000,
0*%
%TA.AperFunction,Material*%
%ADD19PPAD009*%
%AMPPAD010*
4,1,36,
-0.889000,1.016000,
0.889000,1.016000,
0.914970,1.013470,
0.938980,1.006200,
0.960580,0.994650,
0.979290,0.979290,
0.994650,0.960570,
1.006200,0.938980,
1.013470,0.914970,
1.016000,0.889000,
1.016000,-0.889000,
1.013470,-0.914970,
1.006200,-0.938980,
0.994650,-0.960570,
0.979290,-0.979290,
0.960580,-0.994650,
0.938980,-1.006200,
0.914970,-1.013470,
0.889000,-1.016000,
-0.889000,-1.016000,
-0.914970,-1.013470,
-0.938980,-1.006200,
-0.960580,-0.994650,
-0.979290,-0.979290,
-0.994650,-0.960570,
-1.006200,-0.938980,
-1.013470,-0.914970,
-1.016000,-0.889000,
-1.016000,0.889000,
-1.013470,0.914970,
-1.006200,0.938980,
-0.994650,0.960570,
-0.979290,0.979290,
-0.960580,0.994650,
-0.938980,1.006200,
-0.914970,1.013470,
-0.889000,1.016000,
0*%
%TA.AperFunction,Material*%
%ADD70PPAD010*%
%TA.AperFunction,Profile*%
%ADD15C,0.203200*%
%TD.AperFunction*%
D18*
X-6209502Y+7511632D03*
X-5423660Y+7527283D03*
X-7024651Y+8663453D03*
X-5716627Y+8511357D03*
X-6294591Y+9018343D03*
X-5316108Y+6640579D03*
X-6800000Y+8900000D03*
X-7950000Y+8900000D03*
X-7600000Y+7750000D03*
X-8259470Y+7750000D03*
X-2375590Y+7456827D03*
X-3916827Y+7583573D03*
X-2583454Y+9053831D03*
X-3800000Y+8750000D03*
X-3945510Y+9668457D03*
X-3735564Y+8477617D03*
X-6250000Y+7250000D03*
X-5413863Y+7187491D03*
X-5696961Y+9920730D03*
X-7967937Y+9920730D03*
D19*
X-8500000Y+7250000D03*
D18*
X-8500000Y+7504000D03*
X-8500000Y+7758000D03*
X-8500000Y+8012000D03*
X-9262000Y+8012000D03*
X-9262000Y+7758000D03*
X-9262000Y+7504000D03*
X-9262000Y+7250000D03*
D70*
X-7954000Y+9250000D03*
X-7700000Y+9250000D03*
D18*
X-8050000Y+7000000D03*
X-8050000Y+8016000D03*
X-8350000Y+8500000D03*
X-9366000Y+8500000D03*
X-8450000Y+6850000D03*
X-9466000Y+6850000D03*
X-8000000Y+8400000D03*
X-7746000Y+8400000D03*
D19*
X-7300000Y+8350000D03*
D18*
X-7300000Y+8096000D03*
X-7300000Y+7842000D03*
X-7300000Y+7588000D03*
X-7300000Y+7334000D03*
X-7300000Y+7080000D03*
X-7300000Y+6826000D03*
X-6538000Y+6826000D03*
X-6538000Y+7080000D03*
X-6538000Y+7334000D03*
X-6538000Y+7588000D03*
X-6538000Y+7842000D03*
X-6538000Y+8096000D03*
X-6538000Y+8350000D03*
D19*
X-4300000Y+6950000D03*
D18*
X-4300000Y+7204000D03*
X-4300000Y+7458000D03*
X-4300000Y+7712000D03*
X-4300000Y+7966000D03*
X-4300000Y+8220000D03*
X-4300000Y+8474000D03*
X-4300000Y+8728000D03*
X-5062000Y+8728000D03*
X-5062000Y+8474000D03*
X-5062000Y+8220000D03*
X-5062000Y+7966000D03*
X-5062000Y+7712000D03*
X-5062000Y+7458000D03*
X-5062000Y+7204000D03*
X-5062000Y+6950000D03*
D19*
X-2650000Y+6950000D03*
D18*
X-2650000Y+7204000D03*
X-2650000Y+7458000D03*
X-2650000Y+7712000D03*
X-2650000Y+7966000D03*
X-2650000Y+8220000D03*
X-2650000Y+8474000D03*
X-2650000Y+8728000D03*
X-3412000Y+8728000D03*
X-3412000Y+8474000D03*
X-3412000Y+8220000D03*
X-3412000Y+7966000D03*
X-3412000Y+7712000D03*
X-3412000Y+7458000D03*
X-3412000Y+7204000D03*
X-3412000Y+6950000D03*
D70*
X-950000Y+8950000D03*
X-1204000Y+8950000D03*
X-1000000Y+7900000D03*
X-1254000Y+7900000D03*
X-1000000Y+6650000D03*
X-1254000Y+6650000D03*
D18*
X-784000Y+9450000D03*
X-1800000Y+9450000D03*
X-750000Y+8350000D03*
X-1766000Y+8350000D03*
X-800000Y+7350000D03*
X-1816000Y+7350000D03*
D70*
X-3692000Y+9909549D03*
X-3946000Y+9909549D03*
X-4200000Y+9909549D03*
X-4750000Y+9909549D03*
X-5004000Y+9909549D03*
X-5258000Y+9909549D03*
D15*
X-10050000Y+5980809D02*
X-400000Y+5980809D01*
X-400000Y+10400000D01*
X-10050000Y+10400000D01*
X-10050000Y+5980809D01*
M02*
