G04 PROTEUS GERBER X2 FILE*
%TF.GenerationSoftware,Labcenter,Proteus,8.9-SP0-Build27865*%
%TF.CreationDate,2026-01-09T17:02:56+00:00*%
%TF.FileFunction,AssemblyDrawing,Top*%
%TF.FilePolarity,Positive*%
%TF.Part,Single*%
%TF.SameCoordinates,{d5e26176-f0e9-456a-af72-f71da18a6cc2}*%
%FSLAX45Y45*%
%MOMM*%
G01*
%TA.AperFunction,Profile*%
%ADD15C,0.203200*%
%TA.AperFunction,Material*%
%ADD17C,0.203200*%
%ADD71C,0.508000*%
%ADD20C,0.259080*%
%ADD21C,0.711200*%
%ADD22C,0.164590*%
%ADD23C,0.121920*%
%ADD24C,0.106680*%
%ADD25C,0.050800*%
%ADD26C,0.191010*%
%ADD27C,0.256900*%
%ADD28C,0.563880*%
%ADD29C,0.118360*%
%TD.AperFunction*%
D15*
X-10050000Y+5980809D02*
X-400000Y+5980809D01*
X-400000Y+10400000D01*
X-10050000Y+10400000D01*
X-10050000Y+5980809D01*
D17*
X-9350900Y+7112840D02*
X-8411100Y+7112840D01*
X-8411100Y+8149160D01*
X-9350900Y+8149160D01*
X-9350900Y+7112840D01*
D71*
X-8500000Y+7250000D02*
X-8500000Y+7250000D01*
D20*
X-8958724Y+7475552D02*
X-8958724Y+7346012D01*
X-8906908Y+7346012D01*
X-8906908Y+7449644D01*
X-8881000Y+7475552D01*
X-8829184Y+7475552D01*
X-8803276Y+7449644D01*
X-8803276Y+7371920D01*
X-8829184Y+7346012D01*
X-8958724Y+7682816D02*
X-8958724Y+7553276D01*
X-8906908Y+7553276D01*
X-8906908Y+7656908D01*
X-8881000Y+7682816D01*
X-8829184Y+7682816D01*
X-8803276Y+7656908D01*
X-8803276Y+7579184D01*
X-8829184Y+7553276D01*
X-8958724Y+7890080D02*
X-8958724Y+7760540D01*
X-8906908Y+7760540D01*
X-8906908Y+7864172D01*
X-8881000Y+7890080D01*
X-8829184Y+7890080D01*
X-8803276Y+7864172D01*
X-8803276Y+7786448D01*
X-8829184Y+7760540D01*
D17*
X-8091160Y+9112840D02*
X-7562840Y+9112840D01*
X-7562840Y+9387160D01*
X-8091160Y+9387160D01*
X-8091160Y+9112840D01*
D21*
X-7954000Y+9250000D02*
X-7954000Y+9250000D01*
D22*
X-7958673Y+9233540D02*
X-7958673Y+9217081D01*
X-7942214Y+9200622D01*
X-7876378Y+9200622D01*
X-7859919Y+9217081D01*
X-7859919Y+9299377D01*
X-7794082Y+9266459D02*
X-7761164Y+9299377D01*
X-7761164Y+9200622D01*
D17*
X-8151600Y+6911100D02*
X-7948400Y+6911100D01*
X-7948400Y+8104900D01*
X-8151600Y+8104900D01*
X-8151600Y+6911100D01*
D21*
X-8050000Y+8016000D02*
X-8050000Y+8016000D01*
D23*
X-8013424Y+7410464D02*
X-8086576Y+7410464D01*
X-8086576Y+7459232D01*
X-8062192Y+7483616D01*
X-8037808Y+7483616D01*
X-8013424Y+7459232D01*
X-8013424Y+7410464D01*
X-8062192Y+7532384D02*
X-8086576Y+7556768D01*
X-8013424Y+7556768D01*
D17*
X-9454900Y+8411100D02*
X-8261100Y+8411100D01*
X-8261100Y+8588900D01*
X-9454900Y+8588900D01*
X-9454900Y+8411100D01*
D21*
X-8350000Y+8500000D02*
X-8350000Y+8500000D01*
D24*
X-8943344Y+8467996D02*
X-8943344Y+8532004D01*
X-8890004Y+8532004D01*
X-8879336Y+8521336D01*
X-8879336Y+8510668D01*
X-8890004Y+8500000D01*
X-8943344Y+8500000D01*
X-8890004Y+8500000D02*
X-8879336Y+8489332D01*
X-8879336Y+8467996D01*
X-8836664Y+8510668D02*
X-8815328Y+8532004D01*
X-8815328Y+8467996D01*
D17*
X-9554900Y+6761100D02*
X-8361100Y+6761100D01*
X-8361100Y+6938900D01*
X-9554900Y+6938900D01*
X-9554900Y+6761100D01*
D21*
X-8450000Y+6850000D02*
X-8450000Y+6850000D01*
D24*
X-9043344Y+6817996D02*
X-9043344Y+6882004D01*
X-8990004Y+6882004D01*
X-8979336Y+6871336D01*
X-8979336Y+6860668D01*
X-8990004Y+6850000D01*
X-9043344Y+6850000D01*
X-8990004Y+6850000D02*
X-8979336Y+6839332D01*
X-8979336Y+6817996D01*
X-8947332Y+6871336D02*
X-8936664Y+6882004D01*
X-8904660Y+6882004D01*
X-8893992Y+6871336D01*
X-8893992Y+6860668D01*
X-8904660Y+6850000D01*
X-8936664Y+6850000D01*
X-8947332Y+6839332D01*
X-8947332Y+6817996D01*
X-8893992Y+6817996D01*
D25*
X-7589940Y+8400000D02*
X-7590858Y+8422814D01*
X-7598311Y+8468443D01*
X-7613858Y+8514072D01*
X-7639100Y+8559701D01*
X-7677642Y+8605231D01*
X-7723271Y+8640727D01*
X-7768900Y+8663847D01*
X-7814529Y+8677700D01*
X-7860158Y+8683646D01*
X-7873920Y+8683980D01*
X-8157900Y+8400000D02*
X-8156982Y+8422814D01*
X-8149529Y+8468443D01*
X-8133982Y+8514072D01*
X-8108740Y+8559701D01*
X-8070198Y+8605231D01*
X-8024569Y+8640727D01*
X-7978940Y+8663847D01*
X-7933311Y+8677700D01*
X-7887682Y+8683646D01*
X-7873920Y+8683980D01*
X-8157900Y+8400000D02*
X-8156982Y+8377186D01*
X-8149529Y+8331557D01*
X-8133982Y+8285928D01*
X-8108740Y+8240299D01*
X-8070198Y+8194769D01*
X-8024569Y+8159273D01*
X-7978940Y+8136153D01*
X-7933311Y+8122300D01*
X-7887682Y+8116354D01*
X-7873920Y+8116020D01*
X-7589940Y+8400000D02*
X-7590858Y+8377186D01*
X-7598311Y+8331557D01*
X-7613858Y+8285928D01*
X-7639100Y+8240299D01*
X-7677642Y+8194769D01*
X-7723271Y+8159273D01*
X-7768900Y+8136153D01*
X-7814529Y+8122300D01*
X-7860158Y+8116354D01*
X-7873920Y+8116020D01*
D21*
X-7746000Y+8400000D02*
X-7746000Y+8400000D01*
D26*
X-7912123Y+8361797D02*
X-7931224Y+8342696D01*
X-7988528Y+8342696D01*
X-8026730Y+8380899D01*
X-8026730Y+8419101D01*
X-7988528Y+8457304D01*
X-7931224Y+8457304D01*
X-7912123Y+8438203D01*
X-7835718Y+8419101D02*
X-7797515Y+8457304D01*
X-7797515Y+8342696D01*
D17*
X-7388900Y+6688840D02*
X-6449100Y+6688840D01*
X-6449100Y+8487160D01*
X-7388900Y+8487160D01*
X-7388900Y+6688840D01*
D71*
X-7300000Y+8350000D02*
X-7300000Y+8350000D01*
D27*
X-6996070Y+6997127D02*
X-6996070Y+7125577D01*
X-6970380Y+7125577D01*
X-6841929Y+6997127D01*
X-6893309Y+7331098D02*
X-6893309Y+7176958D01*
X-6996070Y+7279718D01*
X-6841929Y+7279718D01*
X-6841929Y+7382479D02*
X-6996070Y+7382479D01*
X-6996070Y+7536619D02*
X-6841929Y+7536619D01*
X-6919000Y+7382479D02*
X-6919000Y+7536619D01*
X-6867619Y+7742140D02*
X-6841929Y+7716450D01*
X-6841929Y+7639380D01*
X-6893309Y+7588000D01*
X-6944690Y+7588000D01*
X-6996070Y+7639380D01*
X-6996070Y+7716450D01*
X-6970380Y+7742140D01*
X-6996070Y+7819211D02*
X-6996070Y+7947661D01*
X-6970380Y+7947661D01*
X-6841929Y+7819211D01*
X-6893309Y+8153182D02*
X-6893309Y+7999042D01*
X-6996070Y+8101802D01*
X-6841929Y+8101802D01*
D17*
X-5150900Y+6812840D02*
X-4211100Y+6812840D01*
X-4211100Y+8865160D01*
X-5150900Y+8865160D01*
X-5150900Y+6812840D01*
D71*
X-4300000Y+6950000D02*
X-4300000Y+6950000D01*
D28*
X-4850164Y+7387896D02*
X-4568224Y+7387896D01*
X-4511836Y+7444284D01*
X-4511836Y+7669836D01*
X-4568224Y+7726224D01*
X-4850164Y+7726224D01*
X-4737388Y+7951776D02*
X-4850164Y+8064552D01*
X-4511836Y+8064552D01*
D17*
X-3500900Y+6812840D02*
X-2561100Y+6812840D01*
X-2561100Y+8865160D01*
X-3500900Y+8865160D01*
X-3500900Y+6812840D01*
D71*
X-2650000Y+6950000D02*
X-2650000Y+6950000D01*
D28*
X-3200164Y+7387896D02*
X-2918224Y+7387896D01*
X-2861836Y+7444284D01*
X-2861836Y+7669836D01*
X-2918224Y+7726224D01*
X-3200164Y+7726224D01*
X-3143776Y+7895388D02*
X-3200164Y+7951776D01*
X-3200164Y+8120940D01*
X-3143776Y+8177328D01*
X-3087388Y+8177328D01*
X-3031000Y+8120940D01*
X-3031000Y+7951776D01*
X-2974612Y+7895388D01*
X-2861836Y+7895388D01*
X-2861836Y+8177328D01*
D17*
X-1341160Y+8622340D02*
X-749340Y+8622340D01*
X-749340Y+9214160D01*
X-1341160Y+9214160D01*
X-1341160Y+8622340D01*
D21*
X-1204000Y+8950000D02*
X-1204000Y+8950000D01*
D29*
X-1234632Y+8953759D02*
X-1234632Y+8882740D01*
X-1163614Y+8882740D01*
X-1068923Y+8882740D02*
X-1139941Y+8882740D01*
X-1139941Y+8953759D01*
X-1068923Y+8953759D01*
X-1139941Y+8918250D02*
X-1092596Y+8918250D01*
X-1045250Y+8882740D02*
X-1045250Y+8953759D01*
X-997905Y+8953759D01*
X-974232Y+8930086D01*
X-974232Y+8906413D01*
X-997905Y+8882740D01*
X-1045250Y+8882740D01*
X-926887Y+8930086D02*
X-903214Y+8953759D01*
X-903214Y+8882740D01*
D17*
X-1391160Y+7572340D02*
X-799340Y+7572340D01*
X-799340Y+8164160D01*
X-1391160Y+8164160D01*
X-1391160Y+7572340D01*
D21*
X-1254000Y+7900000D02*
X-1254000Y+7900000D01*
D29*
X-1284632Y+7903759D02*
X-1284632Y+7832740D01*
X-1213614Y+7832740D01*
X-1118923Y+7832740D02*
X-1189941Y+7832740D01*
X-1189941Y+7903759D01*
X-1118923Y+7903759D01*
X-1189941Y+7868250D02*
X-1142596Y+7868250D01*
X-1095250Y+7832740D02*
X-1095250Y+7903759D01*
X-1047905Y+7903759D01*
X-1024232Y+7880086D01*
X-1024232Y+7856413D01*
X-1047905Y+7832740D01*
X-1095250Y+7832740D01*
X-988723Y+7891922D02*
X-976887Y+7903759D01*
X-941378Y+7903759D01*
X-929541Y+7891922D01*
X-929541Y+7880086D01*
X-941378Y+7868250D01*
X-976887Y+7868250D01*
X-988723Y+7856413D01*
X-988723Y+7832740D01*
X-929541Y+7832740D01*
D17*
X-1391160Y+6322340D02*
X-799340Y+6322340D01*
X-799340Y+6914160D01*
X-1391160Y+6914160D01*
X-1391160Y+6322340D01*
D21*
X-1254000Y+6650000D02*
X-1254000Y+6650000D01*
D29*
X-1284632Y+6653759D02*
X-1284632Y+6582740D01*
X-1213614Y+6582740D01*
X-1118923Y+6582740D02*
X-1189941Y+6582740D01*
X-1189941Y+6653759D01*
X-1118923Y+6653759D01*
X-1189941Y+6618250D02*
X-1142596Y+6618250D01*
X-1095250Y+6582740D02*
X-1095250Y+6653759D01*
X-1047905Y+6653759D01*
X-1024232Y+6630086D01*
X-1024232Y+6606413D01*
X-1047905Y+6582740D01*
X-1095250Y+6582740D01*
X-988723Y+6641922D02*
X-976887Y+6653759D01*
X-941378Y+6653759D01*
X-929541Y+6641922D01*
X-929541Y+6630086D01*
X-941378Y+6618250D01*
X-929541Y+6606413D01*
X-929541Y+6594577D01*
X-941378Y+6582740D01*
X-976887Y+6582740D01*
X-988723Y+6594577D01*
X-965050Y+6618250D02*
X-941378Y+6618250D01*
D17*
X-1888900Y+9361100D02*
X-695100Y+9361100D01*
X-695100Y+9538900D01*
X-1888900Y+9538900D01*
X-1888900Y+9361100D01*
D21*
X-784000Y+9450000D02*
X-784000Y+9450000D01*
D24*
X-1377344Y+9417996D02*
X-1377344Y+9482004D01*
X-1324004Y+9482004D01*
X-1313336Y+9471336D01*
X-1313336Y+9460668D01*
X-1324004Y+9450000D01*
X-1377344Y+9450000D01*
X-1324004Y+9450000D02*
X-1313336Y+9439332D01*
X-1313336Y+9417996D01*
X-1281332Y+9471336D02*
X-1270664Y+9482004D01*
X-1238660Y+9482004D01*
X-1227992Y+9471336D01*
X-1227992Y+9460668D01*
X-1238660Y+9450000D01*
X-1227992Y+9439332D01*
X-1227992Y+9428664D01*
X-1238660Y+9417996D01*
X-1270664Y+9417996D01*
X-1281332Y+9428664D01*
X-1259996Y+9450000D02*
X-1238660Y+9450000D01*
D17*
X-1854900Y+8261100D02*
X-661100Y+8261100D01*
X-661100Y+8438900D01*
X-1854900Y+8438900D01*
X-1854900Y+8261100D01*
D21*
X-750000Y+8350000D02*
X-750000Y+8350000D01*
D24*
X-1343344Y+8317996D02*
X-1343344Y+8382004D01*
X-1290004Y+8382004D01*
X-1279336Y+8371336D01*
X-1279336Y+8360668D01*
X-1290004Y+8350000D01*
X-1343344Y+8350000D01*
X-1290004Y+8350000D02*
X-1279336Y+8339332D01*
X-1279336Y+8317996D01*
X-1193992Y+8339332D02*
X-1258000Y+8339332D01*
X-1215328Y+8382004D01*
X-1215328Y+8317996D01*
D17*
X-1904900Y+7261100D02*
X-711100Y+7261100D01*
X-711100Y+7438900D01*
X-1904900Y+7438900D01*
X-1904900Y+7261100D01*
D21*
X-800000Y+7350000D02*
X-800000Y+7350000D01*
D24*
X-1393344Y+7317996D02*
X-1393344Y+7382004D01*
X-1340004Y+7382004D01*
X-1329336Y+7371336D01*
X-1329336Y+7360668D01*
X-1340004Y+7350000D01*
X-1393344Y+7350000D01*
X-1340004Y+7350000D02*
X-1329336Y+7339332D01*
X-1329336Y+7317996D01*
X-1243992Y+7382004D02*
X-1297332Y+7382004D01*
X-1297332Y+7360668D01*
X-1254660Y+7360668D01*
X-1243992Y+7350000D01*
X-1243992Y+7328664D01*
X-1254660Y+7317996D01*
X-1286664Y+7317996D01*
X-1297332Y+7328664D01*
D17*
X-4337160Y+9772389D02*
X-3554840Y+9772389D01*
X-3554840Y+10046709D01*
X-4337160Y+10046709D01*
X-4337160Y+9772389D01*
D21*
X-3692000Y+9909549D02*
X-3692000Y+9909549D01*
D22*
X-4143509Y+9876630D02*
X-4127050Y+9860171D01*
X-4061214Y+9860171D01*
X-4044755Y+9876630D01*
X-4044755Y+9893089D01*
X-4061214Y+9909549D01*
X-4127050Y+9909549D01*
X-4143509Y+9926008D01*
X-4143509Y+9942467D01*
X-4127050Y+9958926D01*
X-4061214Y+9958926D01*
X-4044755Y+9942467D01*
X-4011836Y+9958926D02*
X-4011836Y+9860171D01*
X-3962459Y+9909549D01*
X-3913082Y+9860171D01*
X-3913082Y+9958926D01*
X-3847245Y+9926008D02*
X-3814327Y+9958926D01*
X-3814327Y+9860171D01*
D17*
X-5395160Y+9772389D02*
X-4612840Y+9772389D01*
X-4612840Y+10046709D01*
X-5395160Y+10046709D01*
X-5395160Y+9772389D01*
D21*
X-4750000Y+9909549D02*
X-4750000Y+9909549D01*
D22*
X-5201509Y+9876630D02*
X-5185050Y+9860171D01*
X-5119214Y+9860171D01*
X-5102755Y+9876630D01*
X-5102755Y+9893089D01*
X-5119214Y+9909549D01*
X-5185050Y+9909549D01*
X-5201509Y+9926008D01*
X-5201509Y+9942467D01*
X-5185050Y+9958926D01*
X-5119214Y+9958926D01*
X-5102755Y+9942467D01*
X-5069836Y+9958926D02*
X-5069836Y+9860171D01*
X-5020459Y+9909549D01*
X-4971082Y+9860171D01*
X-4971082Y+9958926D01*
X-4921704Y+9942467D02*
X-4905245Y+9958926D01*
X-4855868Y+9958926D01*
X-4839409Y+9942467D01*
X-4839409Y+9926008D01*
X-4855868Y+9909549D01*
X-4905245Y+9909549D01*
X-4921704Y+9893089D01*
X-4921704Y+9860171D01*
X-4839409Y+9860171D01*
M02*
